PathFileType	4	(X/Y/Z)	5_coords_data.trc
DataRate	CameraRate	NumFrames	NumMarkers	Units	OrigDataRate	OrigDataStartFrame	OrigNumFrames
30.0	30.0	9	21	m	30.0	21	62
Frame#	Time	THUMB_TIP	THUMB_IP	THUMB_MCP	THUMB_CMC	INDEX_TIP	INDEX_DIP	INDEX_PIP	INDEX_MCP	MIDDLE_TIP	MIDDLE_DIP	MIDDLE_PIP	MIDDLE_MCP	RING_TIP	RING_DIP	RING_PIP	RING_MCP	PINKY_TIP	PINKY_DIP	PINKY_PIP	PINKY_MCP	WRIST
X1	Y1	Z1	X2	Y2	Z2	X3	Y3	Z3	X4	Y4	Z4	X5	Y5	Z5	X6	Y6	Z6	X7	Y7	Z7	X8	Y8	Z8	X9	Y9	Z9	X10	Y10	Z10	X11	Y11	Z11	X12	Y12	Z12	X13	Y13	Z13	X14	Y14	Z14	X15	Y15	Z15	X16	Y16	Z16	X17	Y17	Z17	X18	Y18	Z18	X19	Y19	Z19	X20	Y20	Z20	X21	Y21	Z21
20	0.6666666666666666	-0.0446161003112793	-0.19560699462890624	1.0246500244140626	-0.037560298919677736	-0.17003700256347656	1.0234000244140624	-0.03899639892578125	-0.14361199951171874	1.0376800537109374	-0.0365348014831543	-0.10816000366210937	1.0436500244140625	-0.03683810043334961	-0.11886699676513672	1.019280029296875	-0.022436300277709962	-0.12027200317382812	1.0094500122070313	-0.01935610008239746	-0.12662999725341798	0.9883729858398438	-0.05966170120239258	-0.12648200225830078	0.99264599609375	-0.03183580017089844	-0.10433300018310547	1.0207000122070313	-0.021186700820922853	-0.10356999969482422	1.0073800048828125	-0.019719600677490234	-0.10753399658203125	0.9807030029296875	-0.061217201232910155	-0.10693299865722657	0.9866539916992187	-0.03409690093994141	-0.08711479949951172	1.0189299926757813	-0.02151009941101074	-0.08686969757080078	1.0071099853515626	-0.019878799438476563	-0.087697998046875	0.98181298828125	-0.05920169830322266	-0.0878552017211914	0.9865050048828125	-0.03523789978027344	-0.0718102035522461	1.0134299926757813	-0.021686100006103517	-0.07194969940185547	1.00622998046875	-0.02198080062866211	-0.07165769958496093	0.9891599731445313	-0.05139599990844727	-0.06951000213623047	0.9889329833984375	-0.04670800018310547	-0.07728919982910157	1.0546800537109375
21	0.7	-0.044587501525878905	-0.19571600341796874	1.0248499755859375	-0.037547000885009764	-0.1702480010986328	1.023469970703125	-0.03903870010375977	-0.14370899963378905	1.0379100341796874	-0.03655770111083984	-0.10832599639892578	1.0438299560546875	-0.03666400146484375	-0.119052001953125	1.019969970703125	-0.02250069999694824	-0.1203740005493164	1.0096799926757813	-0.019390199661254885	-0.12676399993896484	0.9885479736328125	-0.059744598388671875	-0.12662100219726563	0.9928590087890625	-0.03161389923095703	-0.10461000061035156	1.020469970703125	-0.021305999755859374	-0.10371199798583984	1.0076300048828124	-0.01971209907531738	-0.10769000244140625	0.9809400024414062	-0.06131320190429688	-0.10711000061035156	0.9869180297851563	-0.034196701049804684	-0.08719229888916015	1.020030029296875	-0.021620899200439452	-0.08697489929199219	1.0073599853515625	-0.019923500061035156	-0.08781580352783203	0.982094970703125	-0.05925899887084961	-0.08798619842529297	0.9867260131835938	-0.03537300109863281	-0.07217749786376954	1.0155900268554687	-0.021803199768066408	-0.07207119750976562	1.0066500244140626	-0.021990900039672853	-0.07179920196533203	0.9893309936523438	-0.05142300033569336	-0.06964969635009766	0.9890280151367188	-0.04682360076904297	-0.07735910034179687	1.05477001953125
22	0.7333333333333333	-0.04468009948730469	-0.19579600524902344	1.024969970703125	-0.03765169906616211	-0.170343994140625	1.0236199951171876	-0.039143798828125	-0.14379800415039062	1.0380400390625	-0.03665660095214844	-0.10843199920654296	1.043989990234375	-0.03718239974975586	-0.11938899993896485	1.0192000122070313	-0.022545799255371094	-0.12049500274658204	1.0099000244140626	-0.019492900848388672	-0.12687999725341798	0.9887559814453125	-0.05977040100097656	-0.12672100067138672	0.9929140014648438	-0.031863199234008786	-0.10461599731445312	1.0214299926757813	-0.021581899642944335	-0.1037760009765625	1.0076799926757813	-0.019858999252319334	-0.10777999877929688	0.9811069946289063	-0.06136650085449219	-0.10714700317382812	0.9869970092773438	-0.034265399932861325	-0.08726370239257812	1.0200499877929687	-0.02164430046081543	-0.08710369873046875	1.007469970703125	-0.019958900451660155	-0.08793669891357422	0.9822930297851562	-0.059299999237060544	-0.08804609680175782	0.9868519897460938	-0.03559059906005859	-0.07210220336914062	1.0148300170898437	-0.02195800018310547	-0.07210250091552735	1.0066300048828125	-0.022050100326538084	-0.07191619873046876	0.9894290161132813	-0.05145600128173828	-0.06975509643554688	0.9891610107421875	-0.046866298675537106	-0.07747029876708984	1.054949951171875
23	0.7666666666666667	-0.044739898681640626	-0.19588699340820312	1.0250799560546875	-0.03774340057373047	-0.17036500549316405	1.0238599853515624	-0.03923720169067383	-0.14391000366210938	1.038199951171875	-0.036761299133300784	-0.10858100128173828	1.0441600341796875	-0.03727470016479492	-0.11959600067138672	1.0194199829101562	-0.022638700485229493	-0.12062000274658204	1.0100499877929687	-0.019546600341796876	-0.12693800354003906	0.9889130249023438	-0.059981098175048826	-0.12679299926757812	0.993208984375	-0.03185490036010742	-0.10466400146484375	1.0215499877929688	-0.02141230010986328	-0.10385299682617187	1.0080700073242188	-0.01984429931640625	-0.10783399963378906	0.9814010009765625	-0.0614093017578125	-0.10720800018310547	0.9872249755859375	-0.03438259887695312	-0.08736920166015626	1.020280029296875	-0.021709699630737305	-0.08720230102539063	1.0076500244140625	-0.020023399353027344	-0.08799459838867188	0.982406005859375	-0.05930889892578125	-0.08816609954833984	0.9869929809570313	-0.03551369857788086	-0.07205770111083984	1.0138200073242187	-0.02193630027770996	-0.07226249694824219	1.0068599853515625	-0.022073699951171876	-0.07198130035400391	0.9896329956054688	-0.051501701354980466	-0.06986090087890626	0.989343017578125	-0.04705559921264649	-0.07753119659423828	1.055300048828125
24	0.8	-0.04476010131835938	-0.19605799865722656	1.02522998046875	-0.03779930114746094	-0.1705189971923828	1.0239299926757812	-0.039324600219726565	-0.1440919952392578	1.038300048828125	-0.036859298706054686	-0.10868699645996094	1.044300048828125	-0.037477100372314456	-0.11974199676513672	1.0193800048828126	-0.0227012996673584	-0.12071600341796875	1.01025	-0.019581499099731444	-0.12714600372314452	0.9891069946289063	-0.059947898864746094	-0.1269100036621094	0.9933040161132812	-0.03172150039672852	-0.10542400360107422	1.0188699951171876	-0.021475200653076173	-0.10404399871826171	1.0081799926757813	-0.01993120002746582	-0.10804900360107422	0.9813389892578125	-0.06143109893798828	-0.10733799743652343	0.987281982421875	-0.03442010116577148	-0.08750980377197265	1.020489990234375	-0.021686399459838867	-0.08734269714355469	1.0077899780273438	-0.020030799865722655	-0.08821050262451172	0.9825889892578125	-0.059309898376464845	-0.08830059814453126	0.9870239868164062	-0.03576430130004883	-0.07244300079345703	1.0153599853515625	-0.021951499938964843	-0.0724176025390625	1.0071500244140625	-0.022050399780273438	-0.07216380310058594	0.9898319702148437	-0.051448600769042965	-0.06999700164794923	0.9894210205078126	-0.04697919845581055	-0.0777957992553711	1.0553399658203124
25	0.8333333333333334	-0.044970901489257815	-0.19605299377441407	1.025199951171875	-0.03795709991455078	-0.17055499267578125	1.023969970703125	-0.03941009902954101	-0.14416700744628907	1.03843994140625	-0.03692150115966797	-0.10884200286865234	1.0445	-0.037376598358154295	-0.11984100341796874	1.0191699829101561	-0.022779300689697267	-0.12090399932861329	1.0104099731445313	-0.01967099952697754	-0.12723799896240234	0.9892239990234375	-0.05998960113525391	-0.1269769973754883	0.9934080200195312	-0.031934499740600586	-0.10510099792480469	1.02047998046875	-0.02164389991760254	-0.10425499725341797	1.0083699951171874	-0.019836599349975587	-0.10811799621582031	0.9816430053710937	-0.06147679901123047	-0.1074020004272461	0.9873309936523438	-0.03424959945678711	-0.087685302734375	1.0194600219726562	-0.021701299667358398	-0.08752290344238281	1.00797998046875	-0.02001539993286133	-0.08829149627685547	0.9827490234375	-0.059292400360107425	-0.08833830261230469	0.987177001953125	-0.035551998138427736	-0.07247650146484375	1.01477001953125	-0.021945100784301758	-0.07254779815673829	1.0071599731445313	-0.021975000381469725	-0.07229900360107422	0.9900120239257812	-0.051362098693847655	-0.07008460235595704	0.9895399780273437	-0.04703260040283203	-0.07784040069580078	1.0553299560546876
26	0.8666666666666667	-0.044947299957275394	-0.19616400146484375	1.025260009765625	-0.03790010070800781	-0.17066299438476562	1.0241199951171875	-0.03941379928588867	-0.14425399780273437	1.0386300048828125	-0.03701559829711914	-0.10869599914550782	1.04475	-0.03708029937744141	-0.11971499633789062	1.0196500244140625	-0.02277739906311035	-0.12092400360107422	1.0105900268554688	-0.019555700302124022	-0.12726200103759766	0.9893460083007812	-0.05987020111083984	-0.12700499725341796	0.99347900390625	-0.031956899642944334	-0.10511299896240234	1.021510009765625	-0.021578100204467772	-0.10427899932861329	1.008530029296875	-0.01979450035095215	-0.1081520004272461	0.9817630004882812	-0.06135039901733398	-0.10745200347900391	0.9875390014648437	-0.034165699005126955	-0.08766649627685547	1.0211199951171874	-0.02172920036315918	-0.08756439971923828	1.008260009765625	-0.01975760078430176	-0.0883145980834961	0.9830369873046875	-0.059317798614501954	-0.08840709686279297	0.987447998046875	-0.03542240142822266	-0.07251930236816406	1.0148800048828126	-0.021790000915527345	-0.07264620208740234	1.0073200073242188	-0.02186050033569336	-0.07229910278320313	0.9901729736328125	-0.05124209976196289	-0.07012519836425782	0.9897639770507812	-0.047135799407958985	-0.07783290100097656	1.0558599853515624
27	0.9	-0.04487020111083984	-0.19628199768066407	1.025469970703125	-0.03782979965209961	-0.17077999877929687	1.024300048828125	-0.03934360122680664	-0.14438400268554688	1.0388199462890626	-0.0368650016784668	-0.10904900360107422	1.0448800048828124	-0.03739189910888672	-0.11988600158691406	1.0204400024414062	-0.022721799850463867	-0.12110399627685547	1.01072998046875	-0.01952549934387207	-0.12742800140380858	0.9895850219726563	-0.05983190155029297	-0.12714600372314452	0.9936810302734375	-0.03195140075683594	-0.10523699951171875	1.021739990234375	-0.021521499633789062	-0.1044469985961914	1.0086799926757812	-0.019746999740600586	-0.10829399871826172	0.9819609985351563	-0.06138510131835938	-0.10760600280761719	0.9878380126953125	-0.03430860137939453	-0.08790170288085937	1.0208300170898437	-0.021603599548339843	-0.08770570373535157	1.00825	-0.01980699920654297	-0.08846959686279297	0.9831420288085938	-0.05922790145874023	-0.08853170013427734	0.9875349731445312	-0.03545989990234375	-0.07273280334472657	1.015760009765625	-0.021772699356079103	-0.07278350067138672	1.007530029296875	-0.021809499740600587	-0.07245449829101562	0.990322021484375	-0.05120439910888672	-0.07020670318603515	0.9900050048828125	-0.04692839813232422	-0.07811119842529297	1.0558399658203126
28	0.9333333333333333	-0.044875099182128904	-0.1963800048828125	1.0256400146484375	-0.037828899383544924	-0.1709250030517578	1.024550048828125	-0.03934429931640625	-0.1445229949951172	1.03906005859375	-0.03680920028686523	-0.10911799621582031	1.0450999755859376	-0.037370899200439456	-0.12013899993896485	1.0202899780273438	-0.02269580078125	-0.12120600128173828	1.011030029296875	-0.019488599777221678	-0.12755799865722656	0.98989697265625	-0.05986109924316406	-0.12724099731445312	0.993948974609375	-0.03165780067443848	-0.10550900268554687	1.02077001953125	-0.021454399108886718	-0.10460099792480469	1.0089500122070312	-0.01973950004577637	-0.10850199890136719	0.982094970703125	-0.061292301177978514	-0.107697998046875	0.988010986328125	-0.033955101013183595	-0.08808429718017578	1.0192000122070313	-0.021574899673461913	-0.08785230255126954	1.0085800170898438	-0.019660200119018555	-0.08860169982910156	0.9833519897460937	-0.0592151985168457	-0.0886439971923828	0.9878359985351562	-0.035552799224853514	-0.07288420104980468	1.0166699829101562	-0.021763799667358398	-0.07293470001220703	1.008	-0.021681400299072267	-0.07264559936523438	0.9906669921875	-0.051133800506591796	-0.07034130096435547	0.9902449951171876	-0.0468922004699707	-0.07815509796142578	1.056050048828125
